<svg width="129" height="25" viewBox="0 0 129 25" fill="none" xmlns="http://www.w3.org/2000/svg">
<path d="M128.306 21.9519C128.832 21.7827 129.121 21.2193 128.952 20.6936L126.194 12.1265C126.025 11.6008 125.462 11.3118 124.936 11.481C124.41 11.6502 124.121 12.2136 124.29 12.7393L126.742 20.3545L119.126 22.8058C118.601 22.975 118.312 23.5384 118.481 24.0641C118.65 24.5898 119.214 24.8788 119.739 24.7096L128.306 21.9519ZM1.49086 21.8712C25.8197 8.16424 44.804 1.7988 63.9111 2.00484C83.0328 2.21104 102.414 8.99895 127.544 21.8898L128.456 20.1102C103.242 7.17587 83.5248 0.216233 63.9327 0.00495917C44.3261 -0.206472 24.9819 6.34068 0.50914 20.1288L1.49086 21.8712Z" fill="url(#paint0_linear_2_44)"/>
<defs>
<linearGradient id="paint0_linear_2_44" x1="128" y1="11" x2="1" y2="11" gradientUnits="userSpaceOnUse">
<stop/>
<stop offset="1" stop-opacity="0"/>
</linearGradient>
</defs>
</svg>
