<svg width="129" height="25" viewBox="0 0 129 25" fill="none" xmlns="http://www.w3.org/2000/svg">
<path d="M128.306 3.0481C128.832 3.21733 129.121 3.78069 128.952 4.30641L126.194 12.8735C126.025 13.3992 125.462 13.6882 124.936 13.519C124.41 13.3498 124.121 12.7864 124.29 12.2607L126.742 4.64549L119.126 2.19421C118.601 2.02498 118.312 1.46162 118.481 0.9359C118.65 0.410181 119.214 0.121185 119.739 0.290411L128.306 3.0481ZM1.49086 3.12876C25.8197 16.8358 44.804 23.2012 63.9111 22.9952C83.0328 22.789 102.414 16.0011 127.544 3.11024L128.456 4.88976C103.242 17.8241 83.5248 24.7838 63.9327 24.995C44.3261 25.2065 24.9819 18.6593 0.50914 4.87124L1.49086 3.12876Z" fill="url(#paint0_linear_37_4)"/>
<defs>
<linearGradient id="paint0_linear_37_4" x1="128" y1="14" x2="1" y2="14" gradientUnits="userSpaceOnUse">
<stop/>
<stop offset="1" stop-opacity="0"/>
</linearGradient>
</defs>
</svg>
