<svg width="201" height="78" viewBox="0 0 201 78" fill="none" xmlns="http://www.w3.org/2000/svg">
<path d="M1.50021 0.000979943C0.948478 -0.0236713 0.481218 0.40361 0.456564 0.955346L0.0548391 9.94637C0.030186 10.4981 0.457477 10.9654 1.00921 10.99C1.56095 11.0147 2.0282 10.5874 2.05285 10.0356L2.40994 2.04362L10.402 2.40071C10.9537 2.42536 11.421 1.99808 11.4456 1.44634C11.4703 0.894606 11.043 0.427354 10.4912 0.402703L1.50021 0.000979943ZM200.099 68.8388C154.101 78.3521 120.608 78.6184 90.6686 67.8731C60.7145 57.1225 34.1772 35.3006 2.19353 0.325141L0.717607 1.67482C32.765 36.72 59.5715 58.8372 89.993 69.7555C120.429 80.6792 154.344 80.3442 200.504 70.7974L200.099 68.8388Z" fill="url(#paint0_linear_2_37)"/>
<defs>
<linearGradient id="paint0_linear_2_37" x1="-4.27221" y1="17.55" x2="194.573" y2="86.3681" gradientUnits="userSpaceOnUse">
<stop/>
<stop offset="1" stop-opacity="0"/>
</linearGradient>
</defs>
</svg>
