<svg width="31" height="28" viewBox="0 0 31 28" fill="none" xmlns="http://www.w3.org/2000/svg">
<path d="M24.5417 0H6.45833C4.74611 0.00202091 3.1046 0.673122 1.89387 1.8661C0.683139 3.05907 0.00205098 4.67652 0 6.36364L0 16.5455C0.00205098 18.2326 0.683139 19.85 1.89387 21.043C3.1046 22.236 4.74611 22.9071 6.45833 22.9091H14.2083V25.4545H9.04167C8.69909 25.4545 8.37055 25.5886 8.12832 25.8273C7.88609 26.066 7.75 26.3897 7.75 26.7273C7.75 27.0648 7.88609 27.3885 8.12832 27.6272C8.37055 27.8659 8.69909 28 9.04167 28H21.9583C22.3009 28 22.6294 27.8659 22.8717 27.6272C23.1139 27.3885 23.25 27.0648 23.25 26.7273C23.25 26.3897 23.1139 26.066 22.8717 25.8273C22.6294 25.5886 22.3009 25.4545 21.9583 25.4545H16.7917V22.9091H24.5417C26.2539 22.9071 27.8954 22.236 29.1061 21.043C30.3169 19.85 30.9979 18.2326 31 16.5455V6.36364C30.9979 4.67652 30.3169 3.05907 29.1061 1.8661C27.8954 0.673122 26.2539 0.00202091 24.5417 0ZM6.45833 2.54545H24.5417C25.5694 2.54545 26.555 2.94773 27.2817 3.66377C28.0084 4.37982 28.4167 5.35099 28.4167 6.36364V15.2727H2.58333V6.36364C2.58333 5.35099 2.99159 4.37982 3.71829 3.66377C4.445 2.94773 5.43062 2.54545 6.45833 2.54545ZM24.5417 20.3636H6.45833C5.65975 20.3604 4.88169 20.1141 4.2306 19.6584C3.57951 19.2028 3.08719 18.5601 2.821 17.8182H28.179C27.9128 18.5601 27.4205 19.2028 26.7694 19.6584C26.1183 20.1141 25.3403 20.3604 24.5417 20.3636Z" fill="white"/>
</svg>
