<svg width="115" height="33" viewBox="0 0 115 33" fill="none" xmlns="http://www.w3.org/2000/svg">
<path d="M18.5 16.5C18.5 20.9473 15.114 24.5 11 24.5C6.88599 24.5 3.5 20.9473 3.5 16.5C3.5 12.0527 6.88599 8.5 11 8.5C15.114 8.5 18.5 12.0527 18.5 16.5Z" stroke="black"/>
<circle cx="21.5" cy="16.5" r="8" stroke="black"/>
<circle cx="16.5" cy="16.5" r="16" stroke="black"/>
<path d="M49.0115 20.52H44.1475L43.2515 23H41.7155L45.7475 11.912H47.4275L51.4435 23H49.9075L49.0115 20.52ZM48.5955 19.336L46.5795 13.704L44.5635 19.336H48.5955ZM59.0728 23L56.4168 18.44H54.6568V23H53.2008V11.848H56.8008C57.6434 11.848 58.3528 11.992 58.9288 12.28C59.5154 12.568 59.9528 12.9573 60.2408 13.448C60.5288 13.9387 60.6728 14.4987 60.6728 15.128C60.6728 15.896 60.4488 16.5733 60.0008 17.16C59.5634 17.7467 58.9021 18.136 58.0168 18.328L60.8168 23H59.0728ZM54.6568 17.272H56.8008C57.5901 17.272 58.1821 17.08 58.5768 16.696C58.9714 16.3013 59.1688 15.7787 59.1688 15.128C59.1688 14.4667 58.9714 13.9547 58.5768 13.592C58.1928 13.2293 57.6008 13.048 56.8008 13.048H54.6568V17.272ZM69.7991 11.848V13.032H66.7591V23H65.3031V13.032H62.2471V11.848H69.7991ZM71.0474 17.416C71.0474 16.328 71.2927 15.352 71.7834 14.488C72.274 13.6133 72.9407 12.9307 73.7834 12.44C74.6367 11.9493 75.5807 11.704 76.6154 11.704C77.8314 11.704 78.8927 11.9973 79.7994 12.584C80.706 13.1707 81.3674 14.0027 81.7834 15.08H80.0394C79.73 14.408 79.282 13.8907 78.6954 13.528C78.1194 13.1653 77.426 12.984 76.6154 12.984C75.8367 12.984 75.138 13.1653 74.5194 13.528C73.9007 13.8907 73.4154 14.408 73.0634 15.08C72.7114 15.7413 72.5354 16.52 72.5354 17.416C72.5354 18.3013 72.7114 19.08 73.0634 19.752C73.4154 20.4133 73.9007 20.9253 74.5194 21.288C75.138 21.6507 75.8367 21.832 76.6154 21.832C77.426 21.832 78.1194 21.656 78.6954 21.304C79.282 20.9413 79.73 20.424 80.0394 19.752H81.7834C81.3674 20.8187 80.706 21.6453 79.7994 22.232C78.8927 22.808 77.8314 23.096 76.6154 23.096C75.5807 23.096 74.6367 22.856 73.7834 22.376C72.9407 21.8853 72.274 21.208 71.7834 20.344C71.2927 19.48 71.0474 18.504 71.0474 17.416ZM89.0068 23.112C87.9721 23.112 87.0281 22.872 86.1748 22.392C85.3214 21.9013 84.6441 21.224 84.1428 20.36C83.6521 19.4853 83.4068 18.504 83.4068 17.416C83.4068 16.328 83.6521 15.352 84.1428 14.488C84.6441 13.6133 85.3214 12.936 86.1748 12.456C87.0281 11.9653 87.9721 11.72 89.0068 11.72C90.0521 11.72 91.0014 11.9653 91.8548 12.456C92.7081 12.936 93.3801 13.608 93.8708 14.472C94.3614 15.336 94.6068 16.3173 94.6068 17.416C94.6068 18.5147 94.3614 19.496 93.8708 20.36C93.3801 21.224 92.7081 21.9013 91.8548 22.392C91.0014 22.872 90.0521 23.112 89.0068 23.112ZM89.0068 21.848C89.7854 21.848 90.4841 21.6667 91.1028 21.304C91.7321 20.9413 92.2228 20.424 92.5748 19.752C92.9374 19.08 93.1188 18.3013 93.1188 17.416C93.1188 16.52 92.9374 15.7413 92.5748 15.08C92.2228 14.408 91.7374 13.8907 91.1188 13.528C90.5001 13.1653 89.7961 12.984 89.0068 12.984C88.2174 12.984 87.5134 13.1653 86.8948 13.528C86.2761 13.8907 85.7854 14.408 85.4228 15.08C85.0708 15.7413 84.8948 16.52 84.8948 17.416C84.8948 18.3013 85.0708 19.08 85.4228 19.752C85.7854 20.424 86.2761 20.9413 86.8948 21.304C87.5241 21.6667 88.2281 21.848 89.0068 21.848ZM100.001 11.848C101.217 11.848 102.268 12.0773 103.153 12.536C104.049 12.984 104.732 13.6293 105.201 14.472C105.681 15.3147 105.921 16.3067 105.921 17.448C105.921 18.5893 105.681 19.5813 105.201 20.424C104.732 21.256 104.049 21.896 103.153 22.344C102.268 22.7813 101.217 23 100.001 23H96.5289V11.848H100.001ZM100.001 21.8C101.441 21.8 102.54 21.4213 103.297 20.664C104.054 19.896 104.433 18.824 104.433 17.448C104.433 16.0613 104.049 14.9787 103.281 14.2C102.524 13.4213 101.43 13.032 100.001 13.032H97.9849V21.8H100.001ZM109.297 13.032V16.76H113.361V17.96H109.297V21.8H113.841V23H107.841V11.832H113.841V13.032H109.297Z" fill="black"/>
</svg>
