<svg width="35" height="35" viewBox="0 0 35 35" fill="none" xmlns="http://www.w3.org/2000/svg">
<g clip-path="url(#clip0_2_46)">
<path d="M22.6041 0H12.3958C8.77769 0 5.83331 2.94438 5.83331 6.5625V28.4375C5.83331 32.0556 8.77769 35 12.3958 35H22.6041C26.2223 35 29.1666 32.0556 29.1666 28.4375V6.5625C29.1666 2.94438 26.2223 0 22.6041 0ZM21.5935 1.45833L21.1196 2.87875C20.8206 3.77417 19.9864 4.375 19.0444 4.375H15.9571C15.015 4.375 14.1808 3.77417 13.8819 2.87875L13.4079 1.45833H21.5935ZM27.7083 28.4375C27.7083 31.2521 25.4187 33.5417 22.6041 33.5417H12.3958C9.58123 33.5417 7.29165 31.2521 7.29165 28.4375V6.5625C7.29165 3.92292 9.31435 1.76896 11.8869 1.50937L12.4964 3.33958C12.9937 4.83 14.3835 5.83188 15.9556 5.83188H19.0429C20.615 5.83188 22.0048 4.83 22.5021 3.33958L23.1116 1.50937C25.6841 1.76896 27.7069 3.92146 27.7069 6.5625L27.7083 28.4375Z" fill="white"/>
<path d="M19.6875 29.1667H15.3125C14.91 29.1667 14.5833 29.4933 14.5833 29.8958C14.5833 30.2983 14.91 30.625 15.3125 30.625H19.6875C20.09 30.625 20.4166 30.2983 20.4166 29.8958C20.4166 29.4933 20.09 29.1667 19.6875 29.1667Z" fill="white"/>
</g>
<defs>
<clipPath id="clip0_2_46">
<rect width="35" height="35" fill="white"/>
</clipPath>
</defs>
</svg>
