<svg width="38" height="38" viewBox="0 0 38 38" fill="none" xmlns="http://www.w3.org/2000/svg">
<path d="M30.2955 18.3176C30.2955 17.7223 29.9614 17.176 29.4294 16.9053C28.0677 16.2118 26.6095 15.5737 24.9755 14.953C22.2743 13.9175 20.3062 11.9193 19.2834 9.18176C18.6707 7.52084 18.0405 6.04201 17.3581 4.66134C17.0905 4.12301 16.5395 3.78101 15.9394 3.78101C15.3393 3.78101 14.7852 4.12301 14.5207 4.66292C13.8399 6.03884 13.2113 7.51767 12.5986 9.17542C11.5757 11.9178 9.60608 13.9159 6.90966 14.9498C5.26616 15.5753 3.80633 16.2133 2.44942 16.9053C1.919 17.1744 1.58492 17.7207 1.58492 18.316C1.58492 18.9113 1.919 19.4576 2.451 19.7283C3.81583 20.4218 5.27408 21.0615 6.90492 21.679C9.60608 22.7145 11.5742 24.7127 12.597 27.4518C13.2129 29.1191 13.8415 30.5948 14.5207 31.9707C14.7883 32.5106 15.3377 32.8526 15.9394 32.8526C16.5411 32.8526 17.0921 32.5106 17.3581 31.9707C18.0405 30.5948 18.6691 29.1159 19.2802 27.4566C20.3047 24.7143 22.2759 22.7161 24.9692 21.6822C26.6063 21.0615 28.0646 20.4234 29.4294 19.7299C29.9614 19.4592 30.2955 18.9145 30.2955 18.3176ZM23.8402 18.7245C20.3189 20.0751 17.6478 22.7826 16.3115 26.3562C16.188 26.6918 16.0645 27.018 15.9394 27.3378C15.8143 27.018 15.6908 26.6903 15.5642 26.3498C14.2342 22.7842 11.5631 20.0751 8.03383 18.7213C7.67916 18.5883 7.33716 18.4522 7.0015 18.3176C7.33558 18.1814 7.68233 18.0468 8.04016 17.9107C11.5631 16.5585 14.2342 13.851 15.5657 10.2806C15.6908 9.94334 15.8159 9.61559 15.9394 9.29734C16.0645 9.61876 16.1896 9.94809 16.3147 10.2853C17.6478 13.8526 20.3189 16.5601 23.845 17.9123C24.1997 18.0453 24.5432 18.1814 24.8789 18.3176C24.5417 18.4538 24.1949 18.5883 23.8402 18.7245Z" fill="white"/>
<path d="M27.0687 10.3582C27.4724 10.564 27.8698 10.7334 28.2609 10.8822C28.5887 11.0089 28.8182 11.2432 28.9417 11.571C29.0874 11.9716 29.2537 12.3706 29.4548 12.7791C29.7192 13.3206 30.2702 13.6657 30.8734 13.6657H30.8766C31.4782 13.6657 32.0292 13.3237 32.2952 12.7838C32.4963 12.3769 32.661 11.9763 32.8083 11.5789C32.9349 11.2432 33.1645 11.0089 33.4859 10.8854C33.8833 10.735 34.2792 10.5656 34.6829 10.3597C35.2149 10.0906 35.549 9.54274 35.549 8.9474C35.549 8.35207 35.2133 7.80582 34.6813 7.53666C34.2792 7.33399 33.8833 7.16457 33.4907 7.01415C33.1645 6.88907 32.9349 6.65474 32.8098 6.32224C32.661 5.92166 32.4963 5.52107 32.2937 5.11257C32.0277 4.57424 31.4767 4.23224 30.875 4.23224H30.8718C30.2686 4.23224 29.7192 4.57582 29.4532 5.11732C29.2537 5.52424 29.0874 5.92482 28.9433 6.31749C28.8167 6.65316 28.5871 6.88749 28.2657 7.01099C27.8667 7.16299 27.4708 7.33082 27.0671 7.53666C26.5351 7.80582 26.201 8.35207 26.201 8.9474C26.201 9.54274 26.5351 10.089 27.0671 10.3582H27.0687Z" fill="white"/>
<path d="M35.5506 27.2096C35.0487 26.9547 34.5531 26.7425 34.0654 26.5588C33.5287 26.353 33.1376 25.954 32.9365 25.4125C32.7512 24.9122 32.5438 24.4118 32.2937 23.9052C32.0261 23.3653 31.4751 23.0233 30.875 23.0233C30.2717 23.0233 29.7207 23.3668 29.4563 23.9083C29.2077 24.415 29.0003 24.9138 28.8198 25.4046C28.614 25.954 28.2229 26.353 27.6941 26.5557C27.2001 26.7425 26.7029 26.9547 26.2026 27.2112C25.6722 27.4819 25.3381 28.0266 25.3381 28.6219C25.3381 29.2173 25.6722 29.7619 26.2026 30.0327C26.7029 30.2876 27.1969 30.4982 27.6893 30.6866C28.2229 30.8908 28.614 31.2883 28.8167 31.8313C29.0003 32.3301 29.2077 32.8304 29.4579 33.3355C29.7239 33.8754 30.2733 34.2174 30.8766 34.219C31.4782 34.219 32.0277 33.8786 32.2952 33.3387C32.547 32.832 32.7544 32.3317 32.9381 31.8361C33.1407 31.2883 33.5318 30.8908 34.0654 30.6866C34.5594 30.4982 35.0518 30.2892 35.5522 30.0343C36.0842 29.7635 36.4182 29.2173 36.4182 28.6219C36.4182 28.0266 36.0842 27.4803 35.5522 27.2096H35.5506Z" fill="white"/>
</svg>
