<svg width="22" height="22" viewBox="0 0 22 22" fill="none" xmlns="http://www.w3.org/2000/svg">
<path d="M17.5395 10.6049C17.5395 10.2603 17.3461 9.94403 17.0381 9.78728C16.2498 9.38578 15.4055 9.01636 14.4595 8.65703C12.8957 8.05753 11.7563 6.90069 11.1641 5.31578C10.8094 4.35419 10.4445 3.49803 10.0494 2.69869C9.89452 2.38703 9.57552 2.18903 9.2281 2.18903C8.88069 2.18903 8.55985 2.38703 8.40677 2.69961C8.0126 3.49619 7.64869 4.35236 7.29394 5.31211C6.70177 6.89978 5.56144 8.05661 4.00035 8.65519C3.04885 9.01728 2.20369 9.38669 1.4181 9.78728C1.11102 9.94311 0.917603 10.2594 0.917603 10.604C0.917603 10.9487 1.11102 11.2649 1.41902 11.4217C2.20919 11.8232 3.05344 12.1935 3.9976 12.551C5.56144 13.1505 6.70085 14.3074 7.29302 15.8932C7.6496 16.8584 8.01352 17.7128 8.40677 18.5094C8.56169 18.8219 8.87977 19.0199 9.2281 19.0199C9.57644 19.0199 9.89544 18.8219 10.0494 18.5094C10.4445 17.7128 10.8084 16.8566 11.1623 15.8959C11.7554 14.3083 12.8966 13.1514 14.4559 12.5529C15.4037 12.1935 16.2479 11.8241 17.0381 11.4226C17.3461 11.2659 17.5395 10.9505 17.5395 10.6049Z" fill="url(#paint0_linear_2_11)"/>
<path d="M15.6713 5.99684C15.9051 6.11601 16.1352 6.21409 16.3616 6.30026C16.5513 6.37359 16.6843 6.50926 16.7558 6.69901C16.8401 6.93092 16.9363 7.16192 17.0528 7.39842C17.2058 7.71192 17.5248 7.91176 17.8741 7.91176H17.8759C18.2243 7.91176 18.5433 7.71376 18.6973 7.40117C18.8137 7.16559 18.909 6.93367 18.9943 6.70359C19.0676 6.50926 19.2005 6.37359 19.3866 6.30209C19.6167 6.21501 19.8458 6.11692 20.0796 5.99776C20.3876 5.84192 20.581 5.52476 20.581 5.18009C20.581 4.83542 20.3867 4.51917 20.0787 4.36334C19.8458 4.24601 19.6167 4.14792 19.3893 4.06084C19.2005 3.98842 19.0676 3.85276 18.9952 3.66026C18.909 3.42834 18.8137 3.19642 18.6963 2.95992C18.5423 2.64826 18.2233 2.45026 17.875 2.45026H17.8732C17.5239 2.45026 17.2058 2.64917 17.0518 2.96267C16.9363 3.19826 16.8401 3.43017 16.7567 3.65751C16.6833 3.85184 16.5504 3.98751 16.3643 4.05901C16.1333 4.14701 15.9042 4.24417 15.6704 4.36334C15.3624 4.51917 15.169 4.83542 15.169 5.18009C15.169 5.52476 15.3624 5.84101 15.6704 5.99684H15.6713Z" fill="url(#paint1_linear_2_11)"/>
<path d="M20.5819 15.7529C20.2913 15.6053 20.0044 15.4825 19.7221 15.3761C19.4113 15.257 19.1849 15.026 19.0685 14.7125C18.9613 14.4228 18.8412 14.1331 18.6964 13.8398C18.5414 13.5272 18.2224 13.3292 17.875 13.3292C17.5258 13.3292 17.2068 13.5281 17.0537 13.8416C16.9098 14.135 16.7897 14.4237 16.6852 14.7079C16.566 15.026 16.3396 15.257 16.0334 15.3743C15.7474 15.4825 15.4596 15.6053 15.1699 15.7538C14.8628 15.9106 14.6694 16.2259 14.6694 16.5706C14.6694 16.9152 14.8628 17.2306 15.1699 17.3873C15.4596 17.5349 15.7456 17.6568 16.0307 17.7659C16.3396 17.8841 16.566 18.1142 16.6834 18.4286C16.7897 18.7174 16.9098 19.0071 17.0546 19.2995C17.2086 19.6121 17.5267 19.8101 17.8759 19.811C18.2243 19.811 18.5423 19.6139 18.6973 19.3013C18.843 19.008 18.9631 18.7183 19.0694 18.4314C19.1868 18.1142 19.4132 17.8841 19.7221 17.7659C20.0081 17.6568 20.2932 17.5358 20.5829 17.3882C20.8909 17.2315 21.0843 16.9152 21.0843 16.5706C21.0843 16.2259 20.8909 15.9096 20.5829 15.7529H20.5819Z" fill="url(#paint2_linear_2_11)"/>
<defs>
<linearGradient id="paint0_linear_2_11" x1="9.22856" y1="2.18903" x2="9.22856" y2="19.0199" gradientUnits="userSpaceOnUse">
<stop stop-color="#3671F1"/>
<stop offset="1" stop-color="#36D9C1"/>
</linearGradient>
<linearGradient id="paint1_linear_2_11" x1="17.875" y1="2.45026" x2="17.875" y2="7.91176" gradientUnits="userSpaceOnUse">
<stop stop-color="#3671F1"/>
<stop offset="1" stop-color="#36D9C1"/>
</linearGradient>
<linearGradient id="paint2_linear_2_11" x1="17.8768" y1="13.3292" x2="17.8768" y2="19.811" gradientUnits="userSpaceOnUse">
<stop stop-color="#3671F1"/>
<stop offset="1" stop-color="#36D9C1"/>
</linearGradient>
</defs>
</svg>
